# xmcd
#
# Track frame offsets:
#	150
#	15711
#	50040
#	71732
#	84198
#	99805
#	116149
#	129989
#	144575
#
# Disc length: 2114 seconds
# Revision: 1
# Processed by: cddbd v1.5.2PL0 Copyright (c) Steve Scherf et al.
# Submitted via: dBpowerAMP V12.0
#
DISCID=74084009
DTITLE=Bo Diddley - Another Dimension
DYEAR=1971
DGENRE=Blues
TTITLE0=The Shape I'm In
TTITLE1=I Love You More Than You'll Ever Know
TTITLE2=Pollution
TTITLE3=Bad Moon Rising
TTITLE4=Down On The Corner
TTITLE5=I Said Shut Up Woman
TTITLE6=Bad Side Of The Moon
TTITLE7=Lodi
TTITLE8=Go For Broke (Instrumental)
EXTD=
EXTT0=
EXTT1=
EXTT2=
EXTT3=
EXTT4=
EXTT5=
EXTT6=
EXTT7=
EXTT8=
PLAYORDER=
